<svg width="16" height="16" viewBox="0 0 16 16" fill="none" xmlns="http://www.w3.org/2000/svg">
<path opacity="0.2" d="M8 3.5C3 3.5 1 8.00049 1 8.00049C1 8.00049 3 12.5 8 12.5C13 12.5 15 8.00049 15 8.00049C15 8.00049 13 3.5 8 3.5ZM8 10.5005C7.50555 10.5005 7.0222 10.3539 6.61107 10.0792C6.19995 9.80449 5.87952 9.41404 5.6903 8.95723C5.50108 8.50041 5.45157 7.99775 5.54804 7.51279C5.6445 7.02784 5.8826 6.58238 6.23223 6.23275C6.58186 5.88312 7.02732 5.64502 7.51227 5.54856C7.99723 5.45209 8.49989 5.5016 8.95671 5.69082C9.41352 5.88004 9.80397 6.20047 10.0787 6.61159C10.3534 7.02272 10.5 7.50607 10.5 8.00052C10.5 8.66356 10.2366 9.29944 9.76777 9.76828C9.29892 10.2371 8.66304 10.5005 8 10.5005Z" fill="white"/>
<path d="M3 2.5L13 13.5" stroke="white" stroke-width="1.04985" stroke-linecap="round" stroke-linejoin="round"/>
<path d="M9.68179 9.84987C9.19117 10.2958 8.54349 10.5286 7.88124 10.497C7.21898 10.4655 6.59639 10.1721 6.1504 9.68155C5.70441 9.19097 5.47156 8.54332 5.50307 7.88106C5.53458 7.2188 5.82786 6.59618 6.31841 6.15015" stroke="white" stroke-width="1.04985" stroke-linecap="round" stroke-linejoin="round"/>
<path d="M4.62465 4.28711C2.07657 5.57746 1 8.00001 1 8.00001C1 8.00001 3 12.4995 8 12.4995C9.1715 12.5089 10.3284 12.239 11.3748 11.7124" stroke="white" stroke-width="1.04985" stroke-linecap="round" stroke-linejoin="round"/>
<path d="M13.038 10.5687C14.4006 9.34827 14.9999 8.00001 14.9999 8.00001C14.9999 8.00001 12.9999 3.49952 7.99991 3.49952C7.56687 3.49881 7.1345 3.53402 6.70728 3.60478" stroke="white" stroke-width="1.04985" stroke-linecap="round" stroke-linejoin="round"/>
<path d="M8.47046 5.54419C9.00182 5.64622 9.48577 5.91779 9.84972 6.31815C10.2137 6.71851 10.438 7.22609 10.4891 7.76474" stroke="white" stroke-width="1.04985" stroke-linecap="round" stroke-linejoin="round"/>
</svg>
