<svg width="33" height="32" viewBox="0 0 33 32" fill="none" xmlns="http://www.w3.org/2000/svg">
<path d="M26.5 11H6.5C5.94772 11 5.5 11.4477 5.5 12V26C5.5 26.5523 5.94772 27 6.5 27H26.5C27.0523 27 27.5 26.5523 27.5 26V12C27.5 11.4477 27.0523 11 26.5 11Z" stroke="#B2B3BF" stroke-width="2" stroke-linecap="round" stroke-linejoin="round"/>
<path d="M12 11V6.5C12 5.30653 12.4741 4.16193 13.318 3.31802C14.1619 2.47411 15.3065 2 16.5 2C17.6935 2 18.8381 2.47411 19.682 3.31802C20.5259 4.16193 21 5.30653 21 6.5V11" stroke="#B2B3BF" stroke-width="2" stroke-linecap="round" stroke-linejoin="round"/>
<path d="M16.5 20.5C17.3284 20.5 18 19.8284 18 19C18 18.1716 17.3284 17.5 16.5 17.5C15.6716 17.5 15 18.1716 15 19C15 19.8284 15.6716 20.5 16.5 20.5Z" fill="#B2B3BF"/>
</svg>
