<svg width="16" height="16" viewBox="0 0 16 16" fill="none" xmlns="http://www.w3.org/2000/svg">
<path opacity="0.2" d="M7.99951 3.49952C2.99951 3.49952 0.999512 8.00001 0.999512 8.00001C0.999512 8.00001 2.99951 12.4995 7.99951 12.4995C12.9995 12.4995 14.9995 8.00001 14.9995 8.00001C14.9995 8.00001 12.9995 3.49952 7.99951 3.49952ZM7.99951 10.5C7.50506 10.5 7.02171 10.3534 6.61059 10.0787C6.19946 9.80401 5.87903 9.41356 5.68981 8.95675C5.50059 8.49993 5.45109 7.99726 5.54755 7.51231C5.64401 7.02736 5.88211 6.5819 6.23174 6.23227C6.58138 5.88264 7.02683 5.64454 7.51179 5.54807C7.99674 5.45161 8.49941 5.50112 8.95622 5.69034C9.41304 5.87956 9.80348 6.19999 10.0782 6.61111C10.3529 7.02224 10.4995 7.50558 10.4995 8.00004C10.4995 8.66308 10.2361 9.29896 9.76728 9.7678C9.29844 10.2366 8.66255 10.5 7.99951 10.5Z" fill="#1D2143"/>
<path d="M7.99951 3.49951C2.99951 3.49951 0.999512 8 0.999512 8C0.999512 8 2.99951 12.4995 7.99951 12.4995C12.9995 12.4995 14.9995 8 14.9995 8C14.9995 8 12.9995 3.49951 7.99951 3.49951Z" stroke="#1D2143" stroke-width="1.0625" stroke-linecap="round" stroke-linejoin="round"/>
<path d="M7.99951 10.5C9.38022 10.5 10.4995 9.38075 10.4995 8.00004C10.4995 6.61933 9.38022 5.50004 7.99951 5.50004C6.6188 5.50004 5.49951 6.61933 5.49951 8.00004C5.49951 9.38075 6.6188 10.5 7.99951 10.5Z" stroke="#1D2143" stroke-width="1.0625" stroke-linecap="round" stroke-linejoin="round"/>
</svg>
