<svg width="128" height="30" viewBox="0 0 128 30" fill="none" xmlns="http://www.w3.org/2000/svg">
<path fill-rule="evenodd" clip-rule="evenodd" d="M75.6675 8.4667C75.0575 8.74274 74.6765 9.36189 74.7051 10.0308L74.7251 10.0408C74.7303 10.4634 74.9046 10.8663 75.209 11.1595C75.5134 11.4526 75.9226 11.6116 76.3451 11.6008C77.0146 11.6002 77.6166 11.1927 77.8658 10.5712C78.115 9.94973 77.9613 9.23919 77.4777 8.77618C76.994 8.31316 76.2775 8.19066 75.6675 8.4667ZM39.6751 9.21084H36.4651V22.2108H39.6751V9.21084ZM45.9551 12.1708C42.9551 12.1708 40.9551 14.1008 40.9551 17.3208C40.9551 20.6108 42.8851 22.4908 45.9551 22.4908C49.0251 22.4908 50.9551 20.5408 50.9551 17.3208C50.9551 14.1008 48.9551 12.1708 45.9551 12.1708ZM47.7751 17.3208C47.7751 15.5508 47.0851 14.5108 45.9851 14.5108C44.8851 14.5108 44.2051 15.5108 44.2051 17.3208C44.2051 19.1308 44.8851 20.1208 45.9851 20.1208C47.0851 20.1208 47.7951 19.1308 47.7951 17.3308L47.7751 17.3208ZM55.3351 22.8808H52.2351L52.2551 22.8908C52.4351 24.6808 54.2151 25.9508 56.9951 25.9608C60.0551 25.9608 62.1351 24.4908 62.1351 22.1408V12.4008H58.9551V14.0136C58.4121 12.9266 57.272 12.2552 56.0451 12.3208C53.5351 12.3208 52.0451 14.2408 52.0451 17.3208C52.0451 20.4008 53.6051 22.1908 55.9551 22.1908C57.2129 22.283 58.3983 21.5966 58.9451 20.4618V22.2408C58.9451 23.2208 58.3051 23.8808 57.0751 23.8808C56.3364 23.9755 55.6251 23.5667 55.3351 22.8808ZM58.9551 17.3208C58.9551 15.7508 58.2351 14.7608 57.0951 14.7608C55.9551 14.7608 55.2551 15.7608 55.2551 17.3208C55.2551 18.8808 55.9451 19.8008 57.0951 19.8008C58.2451 19.8008 58.9551 18.9508 58.9551 17.3208ZM68.4051 12.1708C65.4051 12.1708 63.4051 14.1008 63.4051 17.3208H63.4251C63.4251 20.6108 65.3451 22.4908 68.4051 22.4908C71.4651 22.4908 73.4051 20.5408 73.4051 17.3208C73.4051 14.1008 71.4051 12.1708 68.4051 12.1708ZM70.2251 17.3208C70.2251 15.5508 69.5251 14.5108 68.4351 14.5108C67.3451 14.5108 66.6551 15.5108 66.6551 17.3208C66.6551 19.1308 67.3351 20.1208 68.4351 20.1208C69.5351 20.1208 70.2451 19.1308 70.2451 17.3308L70.2251 17.3208ZM74.7051 12.3908H77.9551V22.2508H74.7551L74.7051 12.3908ZM85.7551 22.3908C88.2051 22.3908 89.6451 20.5308 89.6451 17.3208L89.7051 17.3308C89.7051 14.1108 88.2551 12.2608 85.7351 12.2808C84.4347 12.219 83.235 12.9788 82.7351 14.1808H82.6751V12.4208H79.4851V25.4208H82.6951V20.5608H82.7551C83.2726 21.7394 84.4703 22.4701 85.7551 22.3908ZM86.3751 17.3208C86.3751 15.7608 85.6451 14.7508 84.5151 14.7508C83.3851 14.7508 82.6751 15.7508 82.6651 17.3208C82.6551 18.8908 83.3851 19.8808 84.5151 19.8808C85.6451 19.8808 86.4351 18.9508 86.4351 17.3308L86.3751 17.3208ZM99.5051 15.4708C99.4851 13.4308 97.8151 12.1608 95.1251 12.1608L95.1851 12.1708C92.4751 12.1708 90.7951 13.4208 90.7351 15.3808C90.7351 16.8908 91.7451 17.9008 93.6751 18.3108L95.5351 18.7008C96.3051 18.8608 96.6051 18.9508 96.6051 19.4808C96.6051 20.0108 96.1651 20.3108 95.2251 20.3108C94.2851 20.3108 93.7051 19.8808 93.6151 19.1508H90.5051C90.6351 21.1608 92.4251 22.4808 95.1751 22.4808C97.9251 22.4808 99.7751 21.1208 99.7751 19.1208C99.7751 17.6308 98.9751 16.8308 96.9751 16.4108L94.9151 15.9908C94.1751 15.8408 93.8051 15.6808 93.8051 15.1708C93.8051 14.6608 94.2251 14.3208 95.1051 14.3208C95.9851 14.3208 96.5751 14.7608 96.5751 15.4708H99.5051ZM110.525 22.2408H107.415V20.3908H107.355C106.996 21.6619 105.804 22.5139 104.485 22.4408C103.507 22.4727 102.563 22.0856 101.889 21.377C101.214 20.6684 100.875 19.7056 100.955 18.7308V12.4008H104.165V18.0408C104.165 19.2008 104.775 19.8308 105.775 19.8308C106.25 19.8273 106.7 19.6182 107.008 19.2576C107.317 18.8971 107.455 18.4204 107.385 17.9508V12.4008H110.585L110.525 22.2408ZM115.195 12.3908H112.075L112.095 22.2508H115.305V16.4308C115.253 16.0215 115.381 15.6097 115.655 15.3012C115.929 14.9927 116.322 14.8176 116.735 14.8208C117.615 14.8208 118.105 15.3508 118.105 16.3508V22.2508H121.165V16.4108C121.11 16.0061 121.234 15.5974 121.505 15.2918C121.776 14.9861 122.167 14.8141 122.575 14.8208C123.485 14.8208 123.955 15.3808 123.955 16.3808V22.2508H127.185V15.5608C127.251 14.6748 126.936 13.8026 126.32 13.163C125.703 12.5234 124.843 12.177 123.955 12.2108C122.597 12.1473 121.366 13.0049 120.955 14.3008H120.815C120.578 13.0017 119.391 12.0964 118.075 12.2108C116.774 12.1843 115.62 13.0391 115.265 14.2908H115.195V12.3908Z" fill="#696871"/>
<path fill-rule="evenodd" clip-rule="evenodd" d="M30.1151 10.0609C30.1153 5.98726 27.6153 2.33113 23.8192 0.853383C20.0231 -0.62436 15.7091 0.379257 12.9551 3.38086H0.475098V29.7209H26.8251V17.4109C28.9168 15.54 30.1132 12.8672 30.1151 10.0609ZM25.0451 10.0609C25.0491 12.0113 23.8774 13.7719 22.0766 14.5211C20.2758 15.2703 18.201 14.8604 16.8204 13.4827C15.4398 12.1049 15.0256 10.031 15.771 8.22864C16.5165 6.4263 18.2747 5.25086 20.2251 5.25086C22.8832 5.25085 25.0396 7.40275 25.0451 10.0609ZM5.5451 24.6509H21.7551V19.8209C21.2493 19.9047 20.7377 19.9482 20.2251 19.9509C14.7653 19.9453 10.3406 15.5207 10.3351 10.0609C10.3395 9.52092 10.3897 8.98232 10.4851 8.45086H5.5451V24.6509Z" fill="#696871"/>
</svg>
