<svg width="124" height="29" viewBox="0 0 124 29" fill="none" xmlns="http://www.w3.org/2000/svg">
<path d="M26.7677 10.13C27.1277 10.13 27.2477 10.26 27.2477 10.61V18.53H31.3177C31.6677 18.53 31.7977 18.66 31.7977 19.01V19.71C31.7977 20.06 31.6677 20.19 31.3177 20.19H25.9577C25.6077 20.19 25.4677 20.06 25.4677 19.71V10.61C25.4677 10.26 25.6077 10.13 25.9577 10.13H26.7677Z" fill="#696871"/>
<path fill-rule="evenodd" clip-rule="evenodd" d="M39.3477 9.91998C36.8077 9.91998 35.3477 11.31 35.3477 13.62V16.7C35.3477 19.01 36.8177 20.4 39.3477 20.4C41.8777 20.4 43.3477 19.01 43.3477 16.7V13.62C43.3477 11.31 41.8877 9.91998 39.3477 9.91998ZM39.3977 11.62C40.8577 11.62 41.6677 12.32 41.6677 13.62V16.72C41.6677 18 40.8577 18.72 39.3977 18.72C37.9377 18.72 37.1377 18.03 37.1377 16.72V13.62C37.1377 12.33 37.9377 11.62 39.3977 11.62Z" fill="#696871"/>
<path d="M55.2577 14.68C55.6477 14.68 55.7377 14.81 55.7377 15.16V17.06C55.7592 17.9664 55.3695 18.8339 54.6777 19.42C53.8294 20.0955 52.7598 20.4306 51.6777 20.36C49.0877 20.36 47.6777 18.97 47.6777 16.66V13.56C47.6777 11.28 49.1377 9.88 51.6777 9.88C53.6777 9.88 54.9777 10.67 55.5277 12.25C55.5901 12.3704 55.5921 12.5131 55.533 12.6351C55.474 12.7572 55.3608 12.8442 55.2277 12.87L54.4477 13.14C54.1077 13.26 53.9677 13.19 53.8477 12.84C53.507 11.9613 52.6133 11.4259 51.6777 11.54C50.2077 11.54 49.4077 12.25 49.4077 13.54V16.72C49.4077 18.03 50.2177 18.72 51.6777 18.72C53.1377 18.72 54.0377 18.05 54.0377 17.07V16.33H51.8677C51.5077 16.33 51.3777 16.19 51.3777 15.84V15.16C51.3777 14.81 51.5077 14.68 51.8677 14.68H55.2577Z" fill="#696871"/>
<path fill-rule="evenodd" clip-rule="evenodd" d="M63.8677 9.91998C61.3277 9.91998 59.8677 11.31 59.8677 13.62V16.7C59.8677 19.01 61.3377 20.4 63.8677 20.4C66.3977 20.4 67.8677 19.01 67.8677 16.7V13.62C67.8677 11.31 66.4077 9.91998 63.8677 9.91998ZM63.9177 11.62C65.3677 11.62 66.1777 12.32 66.1777 13.62V16.72C66.1777 18 65.3777 18.72 63.9177 18.72C62.4577 18.72 61.6477 18.03 61.6477 16.72V13.62C61.6477 12.33 62.4677 11.62 63.9177 11.62Z" fill="#696871"/>
<path d="M72.5776 10.42C72.5776 10.2 72.6476 10.13 72.8676 10.13H73.3276C73.5476 10.13 73.5976 10.2 73.5976 10.42V19.9C73.5976 20.12 73.5976 20.19 73.3276 20.19H72.8676C72.6476 20.19 72.5776 20.12 72.5776 19.9V10.42Z" fill="#696871"/>
<path fill-rule="evenodd" clip-rule="evenodd" d="M85.8477 13.27C85.8477 11.5358 84.4419 10.13 82.7077 10.13H78.9777C78.7677 10.13 78.6877 10.2 78.6877 10.42V19.9C78.6877 20.12 78.7677 20.19 78.9777 20.19H79.4477C79.6577 20.19 79.7077 20.12 79.7077 19.9V16.41H82.7077C84.4419 16.41 85.8477 15.0042 85.8477 13.27ZM84.5057 14.33C84.1163 15.0045 83.3966 15.42 82.6177 15.42H79.6177V11.06H82.6177C83.3966 11.06 84.1163 11.4755 84.5057 12.15C84.8951 12.8245 84.8951 13.6555 84.5057 14.33Z" fill="#696871"/>
<path d="M93.6577 9.92999C95.2432 9.75502 96.7555 10.6413 97.3777 12.11C97.4577 12.27 97.3777 12.4 97.2177 12.48L96.7777 12.68C96.5977 12.75 96.5277 12.74 96.4177 12.55C95.9528 11.4608 94.8366 10.7975 93.6577 10.91C91.9677 10.91 91.0477 11.58 91.0477 12.78C91.0275 13.5383 91.5694 14.1955 92.3177 14.32C92.8556 14.4954 93.4132 14.6029 93.9777 14.64C94.6611 14.6764 95.3352 14.8146 95.9777 15.05C96.9931 15.3713 97.6441 16.3604 97.5377 17.42C97.5377 19.29 96.1777 20.42 93.6777 20.42C91.988 20.6133 90.3926 19.601 89.8477 17.99C89.812 17.9178 89.8104 17.8335 89.8432 17.76C89.8761 17.6865 89.9401 17.6315 90.0177 17.61L90.4577 17.45C90.5278 17.4214 90.6067 17.4235 90.6751 17.4558C90.7436 17.4881 90.7953 17.5477 90.8177 17.62C91.2768 18.7793 92.4339 19.5076 93.6777 19.42C95.5677 19.42 96.4977 18.76 96.4977 17.42C96.5341 16.6926 96.0392 16.0455 95.3277 15.89C94.8103 15.7356 94.2767 15.6417 93.7377 15.61L92.6577 15.47C92.3197 15.3982 91.9859 15.3081 91.6577 15.2C91.3336 15.1021 91.0314 14.9425 90.7677 14.73C90.2307 14.2437 89.9376 13.5439 89.9677 12.82C90.0377 11.07 91.3477 9.92999 93.6577 9.92999Z" fill="#696871"/>
<path d="M102.928 16.77C103.016 18.238 104.232 19.3833 105.703 19.3833C107.173 19.3833 108.39 18.238 108.478 16.77V10.42C108.478 10.2 108.548 10.13 108.768 10.13H109.228C109.448 10.13 109.518 10.2 109.518 10.42V16.76C109.518 19.03 108.178 20.4 105.708 20.4C103.238 20.4 101.898 19.03 101.898 16.76V10.42C101.898 10.2 101.968 10.13 102.178 10.13H102.648C102.858 10.13 102.928 10.2 102.928 10.42V16.77Z" fill="#696871"/>
<path d="M123.318 10.13C123.538 10.13 123.608 10.2 123.608 10.42V19.9C123.608 20.12 123.538 20.19 123.318 20.19H122.898C122.688 20.19 122.618 20.12 122.618 19.9V14.13C122.617 13.2904 122.674 12.4518 122.788 11.62H122.728C122.415 12.3807 122.051 13.1191 121.638 13.83L119.488 17.62C119.434 17.7546 119.303 17.8421 119.158 17.84H118.878C118.731 17.8407 118.597 17.7543 118.538 17.62L116.358 13.79C115.971 13.0892 115.636 12.3605 115.358 11.61H115.298C115.4 12.4495 115.454 13.2942 115.458 14.14V19.9C115.458 20.12 115.388 20.19 115.168 20.19H114.778C114.558 20.19 114.488 20.12 114.488 19.9V10.42C114.488 10.2 114.558 10.13 114.778 10.13H115.138C115.306 10.1143 115.466 10.2064 115.538 10.36L119.038 16.58L122.518 10.42C122.628 10.21 122.688 10.18 122.908 10.18L123.318 10.13Z" fill="#696871"/>
<path fill-rule="evenodd" clip-rule="evenodd" d="M2.34768 1.10999V21.42C2.34768 21.6693 2.24865 21.9084 2.07236 22.0847C1.89608 22.261 1.65698 22.36 1.40768 22.36H1.18768C0.668533 22.36 0.247681 21.9391 0.247681 21.42V1.10999C0.253162 0.594754 0.672413 0.179964 1.18768 0.179993H1.40768C1.92295 0.179964 2.3422 0.594754 2.34768 1.10999ZM13.878 13.9846C14.0765 13.7956 14.3439 13.6963 14.6177 13.71L14.5677 13.73C14.8587 13.7003 15.1481 13.7995 15.3597 14.0015C15.5713 14.2034 15.6838 14.4879 15.6677 14.78V20.28C15.6677 20.8599 15.1976 21.33 14.6177 21.33C14.0378 21.33 13.5677 20.8599 13.5677 20.28V14.71C13.5673 14.4359 13.6795 14.1736 13.878 13.9846ZM16.8777 16.88C16.8777 16.3277 17.3254 15.88 17.8777 15.88C18.167 15.8534 18.4536 15.954 18.6629 16.1556C18.8722 16.3572 18.9834 16.6398 18.9677 16.93V18.14C18.9677 18.7171 18.4998 19.185 17.9227 19.185C17.3455 19.185 16.8777 18.7171 16.8777 18.14V16.88ZM8.97768 25.2V17.97C8.66497 18.2077 8.28032 18.3312 7.88768 18.32C7.52751 18.3111 7.17864 18.1925 6.88768 17.98V25.2C6.88768 25.7771 7.35554 26.245 7.93268 26.245C8.50982 26.245 8.97768 25.7771 8.97768 25.2ZM4.61768 20.71C4.25785 20.6992 3.90951 20.5808 3.61768 20.37V27.62C3.61768 28.1999 4.08778 28.67 4.66768 28.67C5.24758 28.67 5.71768 28.1999 5.71768 27.62V20.42C5.39113 20.6311 5.00584 20.7326 4.61768 20.71ZM11.2977 15.85C10.921 15.8474 10.5543 15.7287 10.2477 15.51V22.78C10.2477 23.3599 10.7178 23.83 11.2977 23.83C11.8776 23.83 12.3477 23.3599 12.3477 22.78V15.52C12.0304 15.7563 11.6432 15.8795 11.2477 15.87L11.2977 15.85ZM4.72768 19.94H4.50768C3.98853 19.94 3.56768 19.5191 3.56768 19V3.52999C3.57316 3.01475 3.99241 2.59996 4.50768 2.59999H4.72768C5.24295 2.59996 5.6622 3.01475 5.66768 3.52999V19.02C5.66768 19.5391 5.24683 19.96 4.72768 19.96V19.94ZM7.80768 17.56H8.03768C8.55131 17.56 8.96768 17.1436 8.96768 16.63V5.92999C8.96771 5.41473 8.55292 4.99547 8.03768 4.98999H7.80768C7.55929 4.98998 7.32121 5.08933 7.14651 5.26591C6.97181 5.44249 6.87501 5.68161 6.87768 5.92999V16.63C6.87768 17.1436 7.29406 17.56 7.80768 17.56ZM11.3477 15.11H11.1377C10.6224 15.11 10.2032 14.6952 10.1977 14.18V8.41999C10.1811 8.16047 10.2727 7.90566 10.4509 7.71618C10.629 7.52669 10.8776 7.41946 11.1377 7.41999H11.3577C11.8768 7.41999 12.2977 7.84084 12.2977 8.35999V14.16C12.3004 14.411 12.2025 14.6527 12.0259 14.8311C11.8493 15.0096 11.6087 15.11 11.3577 15.11H11.3477ZM14.4477 12.96H14.6677H14.6777C15.1929 12.9545 15.6077 12.5353 15.6077 12.02V10.53C15.6022 10.0148 15.1829 9.59996 14.6677 9.59999H14.4477C13.9324 9.59996 13.5132 10.0148 13.5077 10.53V12.02C13.5077 12.5391 13.9285 12.96 14.4477 12.96Z" fill="#696871"/>
</svg>
