<svg width="119" height="24" viewBox="0 0 119 24" fill="none" xmlns="http://www.w3.org/2000/svg">
<path d="M38.6277 19.3847C38.0329 19.4169 37.4446 19.2478 36.9577 18.9047C36.5446 18.5985 36.309 18.1085 36.3277 17.5947V8.32469C36.3178 8.24516 36.3452 8.16553 36.4018 8.10887C36.4585 8.0522 36.5381 8.02484 36.6177 8.03469H38.2977C38.4877 8.03469 38.5777 8.13469 38.5777 8.32469V16.8747C38.5777 17.2547 38.7477 17.4447 39.0977 17.4447C39.246 17.4508 39.3944 17.4339 39.5377 17.3947C39.7377 17.3947 39.8477 17.4547 39.8577 17.6347L40.0077 18.8847C40.0222 18.9584 40.0042 19.0349 39.9582 19.0943C39.9122 19.1537 39.8427 19.1903 39.7677 19.1947C39.3997 19.3162 39.0152 19.3803 38.6277 19.3847Z" fill="#696871"/>
<path fill-rule="evenodd" clip-rule="evenodd" d="M42.0776 18.3147C43.8189 19.7534 46.3364 19.7534 48.0776 18.3147V18.3047C49.5837 16.7341 49.5837 14.2554 48.0776 12.6847C46.3335 11.2539 43.8217 11.2539 42.0776 12.6847C40.5334 14.2437 40.5334 16.7558 42.0776 18.3147ZM46.5176 16.9947C45.7061 17.7299 44.4692 17.7299 43.6576 16.9947C42.9245 16.1518 42.9245 14.8976 43.6576 14.0547C44.4692 13.3195 45.7061 13.3195 46.5176 14.0547C47.2507 14.8976 47.2507 16.1518 46.5176 16.9947Z" fill="#696871"/>
<path fill-rule="evenodd" clip-rule="evenodd" d="M58.7377 12.1547C58.7377 11.9647 58.6477 11.8647 58.4577 11.8647L56.7977 11.8747C56.7198 11.8681 56.6431 11.8969 56.5888 11.9532C56.5345 12.0094 56.5084 12.0871 56.5177 12.1647V12.3247C55.9074 11.8579 55.1557 11.6144 54.3877 11.6347C53.3341 11.5971 52.31 11.9865 51.5477 12.7147C50.0491 14.2651 50.0491 16.7243 51.5477 18.2747C52.3065 19.0094 53.3321 19.4031 54.3877 19.3647C55.1341 19.3859 55.8662 19.1571 56.4677 18.7147V19.3447C56.4881 19.808 56.3183 20.2596 55.9977 20.5947C55.6468 20.9149 55.182 21.0807 54.7077 21.0547C54.3185 21.0625 53.9336 20.9732 53.5877 20.7947C53.3038 20.6412 53.0866 20.3884 52.9777 20.0847C52.9226 19.9497 52.7934 19.8596 52.6477 19.8547H50.9677C50.6977 19.8547 50.6977 19.9447 50.6977 20.1447C50.8383 20.9641 51.3127 21.6883 52.0077 22.1447C52.8128 22.6666 53.7588 22.9284 54.7177 22.8947C55.7792 22.9415 56.8191 22.5841 57.6277 21.8947C58.3654 21.2486 58.773 20.3047 58.7377 19.3247V12.1547ZM55.9477 16.9947C55.601 17.3847 55.0992 17.6008 54.5777 17.5847C54.0505 17.5999 53.5429 17.3845 53.1877 16.9947C52.829 16.5829 52.6396 16.0505 52.6577 15.5047C52.6357 14.9535 52.8294 14.4154 53.1977 14.0047C53.5521 13.6138 54.0603 13.3981 54.5877 13.4147C55.1044 13.3976 55.6023 13.6099 55.9477 13.9947C56.6315 14.8778 56.6315 16.1116 55.9477 16.9947Z" fill="#696871"/>
<path fill-rule="evenodd" clip-rule="evenodd" d="M61.3676 18.3147C63.1117 19.7455 65.6235 19.7455 67.3676 18.3147V18.3047C68.8736 16.7341 68.8736 14.2554 67.3676 12.6847C65.6221 11.2578 63.1131 11.2578 61.3676 12.6847C59.8602 14.2587 59.8602 16.7407 61.3676 18.3147ZM64.3776 17.5447C63.8434 17.5612 63.3248 17.3631 62.9376 16.9947C62.2172 16.1471 62.2172 14.9024 62.9376 14.0547C63.3248 13.6864 63.8434 13.4883 64.3776 13.5047C64.9083 13.491 65.4228 13.6889 65.8076 14.0547C66.5279 14.9024 66.5279 16.1471 65.8076 16.9947C65.4228 17.3606 64.9083 17.5585 64.3776 17.5447Z" fill="#696871"/>
<path fill-rule="evenodd" clip-rule="evenodd" d="M70.1976 10.1647C70.7444 10.6433 71.5609 10.6433 72.1076 10.1647C72.3499 9.93611 72.4872 9.61777 72.4872 9.28471C72.4872 8.95164 72.3499 8.6333 72.1076 8.40471C71.5562 7.93891 70.7491 7.93891 70.1976 8.40471C69.9554 8.6333 69.8181 8.95164 69.8181 9.28471C69.8181 9.61777 69.9554 9.93611 70.1976 10.1647ZM70.6476 18.9047C71.1359 19.245 71.7232 19.4139 72.3176 19.3847C72.7085 19.3811 73.0964 19.317 73.4676 19.1947C73.5427 19.1904 73.6121 19.1537 73.6582 19.0943C73.7042 19.0349 73.7222 18.9584 73.7076 18.8847L73.5576 17.6347C73.5476 17.4547 73.4376 17.3947 73.2376 17.3947C73.0909 17.4333 72.9393 17.4502 72.7876 17.4447C72.4476 17.4447 72.2776 17.2547 72.2776 16.8747V12.1547C72.2776 11.9647 72.1876 11.8647 71.9976 11.8647H70.3176C70.2381 11.8549 70.1585 11.8822 70.1018 11.9389C70.0451 11.9955 70.0178 12.0752 70.0276 12.1547V17.5947C70.01 18.106 70.2411 18.5942 70.6476 18.9047Z" fill="#696871"/>
<path fill-rule="evenodd" clip-rule="evenodd" d="M82.7476 12.7047C81.9797 11.9725 80.9478 11.5828 79.8876 11.6247C78.9618 11.6046 78.0685 11.9662 77.4176 12.6247C77.0742 11.9538 76.3583 11.5583 75.6076 11.6247C75.2396 11.618 74.8735 11.679 74.5276 11.8047C74.3827 11.8468 74.2869 11.9843 74.2976 12.1347V13.3147C74.2976 13.4747 74.4076 13.5547 74.6276 13.5547H74.9576C75.1202 13.5309 75.2845 13.5853 75.4008 13.7015C75.517 13.8178 75.5714 13.9821 75.5476 14.1447V22.3447C75.533 22.4226 75.5578 22.5025 75.6138 22.5585C75.6698 22.6145 75.7497 22.6393 75.8276 22.6247H77.5076C77.6976 22.6247 77.7976 22.5347 77.7976 22.3447V18.7347C78.4049 19.1732 79.1387 19.4014 79.8876 19.3847C80.9498 19.4275 81.9832 19.0336 82.7476 18.2947C84.2147 16.7202 84.2147 14.2793 82.7476 12.7047ZM79.7076 17.5842C79.1864 17.5842 78.6879 17.3713 78.3276 16.9947C77.9663 16.5687 77.7773 16.023 77.7976 15.4647C77.7743 14.906 77.9637 14.3593 78.3276 13.9347C78.6879 13.5582 79.1864 13.3452 79.7076 13.3452C80.2287 13.3452 80.7273 13.5582 81.0876 13.9347C81.466 14.3519 81.6637 14.9021 81.6376 15.4647C81.6605 16.0269 81.4632 16.5758 81.0876 16.9947C80.7273 17.3713 80.2287 17.5842 79.7076 17.5842Z" fill="#696871"/>
<path d="M88.5676 19.3847C87.6699 19.4216 86.7798 19.2069 85.9976 18.7647C85.3619 18.3818 84.935 17.7304 84.8376 16.9947C84.8376 16.7947 84.9076 16.6947 85.1276 16.6947H86.5976C86.7402 16.7003 86.8677 16.7852 86.9276 16.9147C87.1376 17.4547 87.6876 17.7247 88.5676 17.7247C88.8746 17.7387 89.1803 17.6769 89.4576 17.5447C89.6527 17.4566 89.7834 17.2683 89.7976 17.0547C89.7976 16.7947 89.6376 16.6147 89.3176 16.4947C88.9381 16.3684 88.5457 16.2845 88.1476 16.2447C87.6761 16.1913 87.2085 16.1078 86.7476 15.9947C86.2995 15.8933 85.892 15.6599 85.5776 15.3247C85.2035 14.8642 85.0373 14.269 85.1188 13.6812C85.2004 13.0935 85.5223 12.566 86.0076 12.2247C86.7284 11.7655 87.5741 11.5419 88.4276 11.5847C89.254 11.5568 90.0716 11.7612 90.7876 12.1747C91.372 12.5057 91.7761 13.0824 91.8876 13.7447C91.8876 13.9447 91.7976 14.0447 91.6176 14.0447H90.1376C90.0101 14.0523 89.891 13.9808 89.8376 13.8647C89.7388 13.6279 89.5526 13.4381 89.3176 13.3347C89.0526 13.196 88.7567 13.1272 88.4576 13.1347C88.1645 13.1188 87.8721 13.1772 87.6076 13.3047C87.417 13.3782 87.2903 13.5604 87.2876 13.7647C87.3008 14.0454 87.4955 14.2848 87.7676 14.3547C88.1517 14.4994 88.5509 14.6001 88.9576 14.6547C89.4253 14.7162 89.8893 14.803 90.3476 14.9147C90.7958 15.0161 91.2033 15.2495 91.5176 15.5847C91.8573 15.9577 92.0337 16.4509 92.0076 16.9547C92.0252 17.6579 91.6721 18.3186 91.0776 18.6947C90.3305 19.1743 89.455 19.415 88.5676 19.3847Z" fill="#696871"/>
<path d="M102.578 18.8847C102.589 18.9564 102.571 19.0297 102.528 19.0881C102.485 19.1464 102.42 19.1848 102.348 19.1947C101.982 19.3139 101.602 19.3779 101.218 19.3847C100.445 19.4647 99.686 19.1348 99.2176 18.5147C98.5112 19.122 97.5979 19.4336 96.6676 19.3847C95.7942 19.4249 94.9444 19.0944 94.3276 18.4747C93.7156 17.8258 93.3942 16.9556 93.4376 16.0647V12.1547C93.4376 11.9647 93.5276 11.8647 93.7176 11.8647H95.3976C95.5876 11.8647 95.6776 11.9647 95.6776 12.1547V15.7647C95.6593 16.2144 95.8131 16.6543 96.1076 16.9947C96.405 17.3102 96.8244 17.4816 97.2576 17.4647C97.7003 17.4841 98.1324 17.3256 98.4576 17.0247C98.7656 16.7073 98.9285 16.2765 98.9076 15.8347V12.1547C98.9076 11.9647 98.9976 11.8647 99.1876 11.8647H100.888C101.078 11.8647 101.168 11.9647 101.168 12.1547V16.8647C101.168 17.2547 101.338 17.4447 101.668 17.4447C101.823 17.4507 101.978 17.4338 102.128 17.3947C102.204 17.3732 102.286 17.388 102.351 17.4348C102.415 17.4815 102.454 17.5552 102.458 17.6347L102.578 18.8847Z" fill="#696871"/>
<path d="M118.468 18.8847C118.486 18.9572 118.47 19.034 118.426 19.094C118.381 19.154 118.312 19.1909 118.238 19.1947C117.866 19.3156 117.478 19.3796 117.088 19.3847C116.493 19.4154 115.905 19.2464 115.418 18.9047C114.989 18.6074 114.738 18.1159 114.748 17.5947V15.2447C114.769 14.7963 114.619 14.3566 114.328 14.0147C114.043 13.6982 113.632 13.5257 113.208 13.5447C112.824 13.5302 112.456 13.6924 112.208 13.9847C111.944 14.3198 111.809 14.7385 111.828 15.1647V18.8547C111.828 19.0447 111.738 19.1447 111.548 19.1447H109.858C109.778 19.1546 109.698 19.1272 109.642 19.0705C109.585 19.0139 109.558 18.9342 109.568 18.8547V15.2447C109.589 14.8012 109.451 14.3646 109.178 14.0147C108.931 13.7171 108.564 13.5449 108.178 13.5447C107.765 13.528 107.365 13.6881 107.078 13.9847C106.792 14.3091 106.644 14.7328 106.668 15.1647V18.8547C106.677 18.9342 106.65 19.0139 106.593 19.0705C106.537 19.1272 106.457 19.1546 106.378 19.1447H104.748C104.558 19.1447 104.468 19.0447 104.468 18.8547V14.1447C104.491 13.9821 104.437 13.8177 104.321 13.7015C104.205 13.5853 104.04 13.5308 103.878 13.5547H103.548C103.328 13.5547 103.218 13.4747 103.218 13.3147V12.1347C103.207 11.9842 103.303 11.8467 103.448 11.8047C103.794 11.679 104.16 11.6179 104.528 11.6247C105.249 11.5633 105.941 11.9211 106.308 12.5447C106.99 11.8983 107.91 11.565 108.848 11.6247C109.761 11.5801 110.642 11.9738 111.218 12.6847C111.888 11.9563 112.85 11.5672 113.838 11.6247C114.72 11.5834 115.58 11.9134 116.208 12.5347C116.822 13.1823 117.143 14.0534 117.098 14.9447V16.8747C117.098 17.2547 117.268 17.4447 117.588 17.4447C117.743 17.4519 117.898 17.4351 118.048 17.3947C118.254 17.3947 118.364 17.4747 118.378 17.6347L118.468 18.8847Z" fill="#696871"/>
<path fill-rule="evenodd" clip-rule="evenodd" d="M1.20761 10.5647C2.72569 4.46305 8.20493 0.179993 14.4926 0.179993C20.7803 0.179993 26.2595 4.46305 27.7776 10.5647H26.5776C24.5533 10.5349 22.5705 11.1399 20.9076 12.2947C20.8116 12.3642 20.7114 12.4277 20.6076 12.4847H20.4676C20.3638 12.4277 20.2636 12.3642 20.1676 12.2947C16.7361 9.98723 12.2491 9.98723 8.81761 12.2947C8.72164 12.3642 8.62145 12.4277 8.51761 12.4847H8.37761C8.27377 12.4277 8.17357 12.3642 8.07761 12.2947C6.41474 11.1399 4.43193 10.5349 2.40761 10.5647H1.20761ZM24.4176 16.8347C25.0336 16.355 25.7971 16.104 26.5776 16.1247H28.1876V12.9147H26.5776C25.2028 12.8981 23.8595 13.326 22.7476 14.1347C21.4633 15.0816 19.712 15.0816 18.4276 14.1347C16.0926 12.5093 12.9926 12.5093 10.6576 14.1347C9.37326 15.0816 7.62195 15.0816 6.33761 14.1347C5.21201 13.3156 3.8494 12.8872 2.45761 12.9147H0.797607V16.1247H2.40761C3.18812 16.104 3.9516 16.355 4.56761 16.8347C6.89855 18.4613 9.99666 18.4613 12.3276 16.8347C12.9444 16.3564 13.7073 16.1057 14.4876 16.1247C15.2684 16.1023 16.0324 16.3535 16.6476 16.8347C18.9826 18.4601 22.0826 18.4601 24.4176 16.8347ZM26.5776 21.8647C25.7971 21.844 25.0336 22.095 24.4176 22.5747C22.0826 24.2001 18.9826 24.2001 16.6476 22.5747C16.0324 22.0935 15.2684 21.8423 14.4876 21.8647C13.7073 21.8457 12.9444 22.0964 12.3276 22.5747C9.99666 24.2013 6.89855 24.2013 4.56761 22.5747C3.9516 22.095 3.18812 21.844 2.40761 21.8647H0.797607V18.6547H2.45761C3.8494 18.6272 5.21201 19.0556 6.33761 19.8747C7.62195 20.8216 9.37326 20.8216 10.6576 19.8747C12.9926 18.2493 16.0926 18.2493 18.4276 19.8747C19.712 20.8216 21.4633 20.8216 22.7476 19.8747C23.8595 19.066 25.2028 18.6381 26.5776 18.6547H28.1876V21.8647H26.5776Z" fill="#696871"/>
</svg>
