<svg width="101" height="48" viewBox="0 0 101 48" fill="none" xmlns="http://www.w3.org/2000/svg">
<path d="M0.607666 28.79H3.60767V43.5H0.607666V28.79Z" fill="#696871"/>
<path fill-rule="evenodd" clip-rule="evenodd" d="M8.63718 33.5194C6.64209 34.3491 5.34361 36.2993 5.34765 38.46C5.33412 39.8795 5.8927 41.2446 6.89739 42.2474C7.90208 43.2502 9.26823 43.8062 10.6877 43.79C12.8484 43.79 14.7962 42.4879 15.6221 40.4912C16.4481 38.4946 15.9894 36.197 14.4601 34.6705C12.9307 33.1441 10.6323 32.6897 8.63718 33.5194ZM10.6487 36.2004C11.9219 36.1785 12.9747 37.187 13.0077 38.46C13.0414 39.0905 12.8099 39.7063 12.3692 40.1584C11.9285 40.6105 11.3188 40.8577 10.6877 40.84C9.41426 40.8396 8.3792 39.8129 8.36851 38.5395C8.35782 37.2662 9.37548 36.2222 10.6487 36.2004Z" fill="#696871"/>
<path fill-rule="evenodd" clip-rule="evenodd" d="M28.0876 43V33.42L25.1376 33.45V34.45C24.4193 33.5739 23.3294 33.0883 22.1976 33.14C19.3699 33.14 17.0776 35.4323 17.0776 38.26C17.0776 41.0877 19.3699 43.38 22.1976 43.38C23.3304 43.4366 24.4223 42.95 25.1376 42.07V43C25.1957 43.618 24.9636 44.228 24.5093 44.651C24.0549 45.074 23.4299 45.262 22.8176 45.16C21.8783 45.2377 20.9865 44.7344 20.5676 43.89L17.9876 45.38C18.9961 47.0215 20.8364 47.9629 22.7576 47.82C25.4376 47.82 28.0876 46.39 28.0876 43ZM23.7028 35.9357C24.6105 36.3451 25.1784 37.265 25.1376 38.26C25.1562 38.9038 24.9016 39.5254 24.4367 39.9712C23.9718 40.4171 23.3401 40.6454 22.6976 40.6C21.7018 40.5991 20.8064 39.9933 20.4354 39.0692C20.0643 38.1451 20.2921 37.0882 21.0108 36.3989C21.7295 35.7097 22.795 35.5263 23.7028 35.9357Z" fill="#696871"/>
<path fill-rule="evenodd" clip-rule="evenodd" d="M33.1072 33.5194C31.1121 34.3491 29.8136 36.2993 29.8176 38.46C29.8041 39.8795 30.3627 41.2446 31.3674 42.2474C32.372 43.2502 33.7382 43.8062 35.1576 43.79C37.3184 43.79 39.2661 42.4879 40.0921 40.4912C40.918 38.4946 40.4593 36.197 38.93 34.6705C37.4007 33.1441 35.1023 32.6897 33.1072 33.5194ZM35.1187 36.2004C36.3919 36.1785 37.4447 37.187 37.4776 38.46H37.4576C37.4911 39.0869 37.2622 39.6995 36.826 40.1509C36.3897 40.6024 35.7853 40.852 35.1576 40.84C33.8842 40.8396 32.8492 39.8129 32.8385 38.5395C32.8278 37.2662 33.8454 36.2222 35.1187 36.2004Z" fill="#696871"/>
<path fill-rule="evenodd" clip-rule="evenodd" d="M43.7077 28.9C42.7025 28.9 41.8877 29.7148 41.8877 30.72C41.8932 31.7228 42.7048 32.5345 43.7077 32.54C44.7129 32.54 45.5277 31.7251 45.5277 30.72C45.5277 29.7148 44.7129 28.9 43.7077 28.9ZM45.1977 33.42H42.1977V43.5H45.1977V33.42Z" fill="#696871"/>
<path fill-rule="evenodd" clip-rule="evenodd" d="M56.9817 42.1258C57.8846 41.1252 58.3511 39.8057 58.2777 38.46C58.3484 37.1159 57.8807 35.799 56.978 34.8006C56.0753 33.8022 54.8121 33.2046 53.4677 33.14C52.3349 33.0856 51.2362 33.536 50.4677 34.37V33.42H47.4677V47.56H50.4677V42.56C51.2362 43.3939 52.3349 43.8444 53.4677 43.79C54.8139 43.7254 56.0787 43.1264 56.9817 42.1258ZM52.8582 36.1208C54.1678 36.1098 55.2445 37.1507 55.2777 38.46H55.2577C55.3052 39.1223 55.0641 39.7728 54.5965 40.2443C54.1289 40.7158 53.4803 40.9621 52.8177 40.92C51.5084 40.8868 50.4675 39.8101 50.4785 38.5005C50.4896 37.1908 51.5485 36.1319 52.8582 36.1208Z" fill="#696871"/>
<path d="M67.6176 40.48C67.6176 42.8 65.6176 43.79 63.4176 43.79C61.6197 43.9492 59.9055 42.9991 59.0876 41.39L61.7076 39.9C61.9268 40.6495 62.6387 41.1449 63.4176 41.09C64.1476 41.09 64.5076 40.86 64.5076 40.46C64.5076 39.35 59.5076 39.94 59.5076 36.46C59.5076 34.26 61.3676 33.15 63.5076 33.15C65.1158 33.1011 66.624 33.928 67.4476 35.31L64.8176 36.69C64.5803 36.1504 64.0471 35.8015 63.4576 35.8C62.9376 35.8 62.6176 36 62.6176 36.37C62.6576 37.52 67.6176 36.75 67.6176 40.48Z" fill="#696871"/>
<path d="M78.6577 33.42V43.5H75.6577V42.56C74.9498 43.4072 73.8792 43.8644 72.7777 43.79C70.7777 43.79 69.0077 42.34 69.0077 39.61V33.42H72.0077V39.17C71.9543 39.6662 72.127 40.1601 72.4779 40.515C72.8289 40.8698 73.3209 41.0479 73.8177 41C74.9177 41 75.6877 40.36 75.6877 38.93V33.42H78.6577Z" fill="#696871"/>
<path d="M95.9976 37.32V43.5H92.9976V37.58C92.9976 36.58 92.5076 35.92 91.5476 35.92C90.5876 35.92 89.9676 36.63 89.9676 37.82V43.5H86.9676V37.58C86.9676 36.58 86.4876 35.92 85.5176 35.92C84.5476 35.92 83.9476 36.63 83.9476 37.82V43.5H80.9476V33.42H83.9476V34.35C84.5847 33.5155 85.6008 33.0601 86.6476 33.14C87.7001 33.0889 88.7023 33.5938 89.2876 34.47C89.9679 33.5545 91.0705 33.0523 92.2076 33.14C94.4876 33.14 95.9976 34.8 95.9976 37.32Z" fill="#696871"/>
<path d="M98.5576 33.36C99.7947 33.36 100.798 32.3571 100.798 31.12C100.798 29.8829 99.7947 28.88 98.5576 28.88C97.3205 28.88 96.3176 29.8829 96.3176 31.12C96.3176 32.3571 97.3205 33.36 98.5576 33.36Z" fill="#696871"/>
<path d="M34.5576 21.16C40.3511 21.16 45.0476 16.4635 45.0476 10.67C45.0476 4.87653 40.3511 0.179993 34.5576 0.179993C28.7642 0.179993 24.0676 4.87653 24.0676 10.67C24.0676 16.4635 28.7642 21.16 34.5576 21.16Z" fill="#696871"/>
<path d="M58.0077 21.16C63.8012 21.16 68.4977 16.4635 68.4977 10.67C68.4977 4.87653 63.8012 0.179993 58.0077 0.179993C52.2142 0.179993 47.5177 4.87653 47.5177 10.67C47.5177 16.4635 52.2142 21.16 58.0077 21.16Z" fill="#696871"/>
<rect x="0.627686" y="0.179993" width="20.97" height="20.97" fill="#696871"/>
</svg>
