<svg width="120" height="28" viewBox="0 0 120 28" fill="none" xmlns="http://www.w3.org/2000/svg">
<path fill-rule="evenodd" clip-rule="evenodd" d="M71.3496 7.13319C70.7831 7.38425 70.4239 7.95223 70.44 8.57169V8.59169C70.4362 8.9986 70.6025 9.38862 70.8987 9.66769C71.1948 9.94677 71.594 10.0896 72 10.0617C72.6195 10.0493 73.1704 9.6645 73.3952 9.08705C73.62 8.5096 73.4743 7.85358 73.0262 7.42558C72.5781 6.99758 71.9161 6.88213 71.3496 7.13319ZM37.87 7.82169H34.87V19.9517H37.87V7.82169ZM43.74 10.5817C40.9 10.5817 39.06 12.3717 39.06 15.3717C39.06 18.4217 40.86 20.1717 43.74 20.1717C46.62 20.1717 48.42 18.3717 48.42 15.3717C48.42 12.3717 46.58 10.5817 43.74 10.5817ZM45.41 15.3717C45.41 13.7217 44.76 12.7517 43.74 12.7517C42.72 12.7517 42.08 13.7517 42.08 15.3717C42.08 16.9917 42.71 17.9717 43.74 17.9717C44.77 17.9717 45.41 17.0517 45.41 15.3817V15.3717ZM52.43 20.5417H49.55V20.5517C49.72 22.2117 51.37 23.4017 54.02 23.4017C56.87 23.4017 58.8 22.0417 58.8 19.8517V10.7517H55.8V12.4217C55.3375 11.3164 54.2372 10.6148 53.04 10.6617C50.74 10.6617 49.36 12.4717 49.36 15.3417C49.36 18.2117 50.81 19.8817 53 19.8817C54.1597 19.9447 55.241 19.2952 55.73 18.2417H55.79V19.9217C55.79 20.8217 55.19 21.4417 54.05 21.4417C53.3704 21.5331 52.7115 21.167 52.43 20.5417ZM55.8 15.3617C55.8 13.9017 55.13 12.9817 54.07 12.9817C53.01 12.9817 52.36 13.8917 52.36 15.3617C52.36 16.8317 53 17.6617 54.07 17.6617C55.14 17.6617 55.8 16.8517 55.8 15.3717V15.3617ZM64.61 10.5717C61.77 10.5717 59.93 12.3617 59.93 15.3617V15.3717C59.93 18.4217 61.72 20.1617 64.61 20.1617C67.5 20.1617 69.3 18.3617 69.3 15.3617C69.3 12.3617 67.45 10.5717 64.61 10.5717ZM66.28 15.3617C66.28 13.7117 65.63 12.7417 64.61 12.7417C63.59 12.7417 63 13.7517 63 15.3817C63 17.0117 63.63 17.9817 64.65 17.9817C65.67 17.9817 66.28 17.0517 66.28 15.3817V15.3617ZM70.44 10.7717H73.44V19.9517H70.44V10.7717ZM80.72 20.0717C83 20.0717 84.33 18.3617 84.33 15.3617L84.37 15.3817C84.37 12.3817 83 10.6617 80.7 10.6217C79.4932 10.5678 78.3818 11.2754 77.92 12.3917H77.86V10.7517H74.86V22.8917H77.86V18.3717H77.92C78.4043 19.4697 79.5224 20.1486 80.72 20.0717ZM81.33 15.3617C81.33 13.9017 80.66 12.9717 79.61 12.9717C78.56 12.9717 77.89 13.9117 77.88 15.3617C77.87 16.8117 78.56 17.7417 79.61 17.7417C80.66 17.7417 81.33 16.8317 81.33 15.3817V15.3617ZM93.55 13.6317C93.48 11.7417 91.97 10.5617 89.48 10.5617V10.5817C87 10.5817 85.39 11.7517 85.37 13.5517C85.37 14.9517 86.31 15.9017 88.1 16.2717L89.83 16.6417C90.55 16.7917 90.83 16.8917 90.83 17.3717C90.83 17.8517 90.43 18.1417 89.55 18.1417C88.67 18.1417 88.13 17.7417 88.04 17.0617H85.15C85.28 18.9317 86.95 20.1517 89.5 20.1517C92.05 20.1517 93.78 18.9317 93.78 17.0317C93.78 15.6417 93 14.9017 91.17 14.5117L89.25 14.1217C88.58 13.9817 88.25 13.8317 88.25 13.3617C88.25 12.8917 88.62 12.5717 89.45 12.5717C90.28 12.5717 90.82 12.9817 90.82 13.6317H93.55ZM103.79 19.9317H100.9V18.2217H100.84C100.513 19.4046 99.4055 20.1996 98.18 20.1317C97.2578 20.1841 96.3581 19.8342 95.7137 19.1725C95.0692 18.5108 94.7432 17.6022 94.82 16.6817V10.7517H97.82V15.9917C97.82 17.0817 98.38 17.6617 99.31 17.6617C99.7512 17.6626 100.171 17.473 100.463 17.1416C100.754 16.8101 100.888 16.3691 100.83 15.9317V10.7517H103.83L103.79 19.9317ZM108.14 10.7517H105.24L105.19 19.9517H108.19V14.5417C108.144 14.1612 108.264 13.7794 108.518 13.4927C108.772 13.206 109.137 13.0418 109.52 13.0417C110.34 13.0417 110.79 13.5417 110.79 14.4617V19.9517H113.64V14.5217C113.591 14.1459 113.707 13.7672 113.958 13.4834C114.209 13.1996 114.571 13.0385 114.95 13.0417C115.79 13.0417 116.24 13.5017 116.24 14.5017V19.9517H119.24V13.7017C119.3 12.8783 119.008 12.0682 118.435 11.4731C117.863 10.878 117.065 10.554 116.24 10.5817C114.954 10.5264 113.793 11.3494 113.42 12.5817H113.36C113.161 11.3525 112.051 10.4823 110.81 10.5817C109.6 10.5593 108.527 11.3566 108.2 12.5217H108.14V10.7517Z" fill="#696871"/>
<path fill-rule="evenodd" clip-rule="evenodd" d="M24.48 5.15167C25.2975 6.1236 25.9711 7.20803 26.48 8.37167C27.2212 10.0683 27.6026 11.9002 27.6 13.7517C27.5945 21.225 21.5433 27.2851 14.07 27.3017C12.3311 27.3007 10.609 26.961 8.99997 26.3017C7.85232 25.8457 6.77497 25.2296 5.79997 24.4717C1.65295 21.3112 -0.309009 16.0491 0.756684 10.9451C1.82238 5.84114 5.72606 1.80371 10.7912 0.566748C15.8564 -0.670214 21.1817 1.11343 24.48 5.15167ZM18.58 3.94167C17.1642 3.28281 15.6215 2.9415 14.06 2.94167L14.07 2.92167C10.367 2.91891 6.92079 4.81345 4.93894 7.94141C2.95708 11.0694 2.71592 14.9946 4.29997 18.3417C4.75166 17.8671 5.03001 17.2541 5.08997 16.6017C5.45368 14.0891 7.42738 12.1154 9.93997 11.7517C11.3576 11.6231 12.4897 10.5161 12.65 9.10167C13.0137 6.58908 14.9874 4.61538 17.5 4.25167C17.8718 4.19502 18.2347 4.09084 18.58 3.94167ZM5.78997 20.7517C5.82997 20.715 5.86997 20.6794 5.90998 20.6439L5.91004 20.6438C5.99002 20.5727 6.06999 20.5016 6.14997 20.4217C7.03962 19.5591 7.61068 18.4205 7.76997 17.1917C7.83455 16.5009 8.14297 15.8557 8.63997 15.3717C9.11821 14.8738 9.76194 14.568 10.45 14.5117C12.9626 14.148 14.9363 12.1743 15.3 9.66167C15.3432 8.93918 15.6533 8.25851 16.17 7.75167C16.66 7.26352 17.3099 6.96877 18 6.92167C19.1239 6.76703 20.1721 6.26738 21 5.49167C21.9426 6.27374 22.7413 7.21456 23.36 8.27167C23.322 8.32302 23.2784 8.36998 23.23 8.41167C22.7526 8.91386 22.1097 9.22643 21.42 9.29167C18.9042 9.64911 16.9274 11.6259 16.57 14.1417C16.4247 15.561 15.2998 16.6817 13.88 16.8217C11.3604 17.1825 9.37638 19.1544 8.99997 21.6717C8.94615 22.1604 8.77831 22.6297 8.50997 23.0417C7.48397 22.4325 6.56505 21.6589 5.78997 20.7517ZM11.06 24.1917C12.0354 24.4714 13.0452 24.6128 14.06 24.6117V24.5617C17.409 24.5487 20.5633 22.9855 22.6021 20.3284C24.6409 17.6714 25.3343 14.22 24.48 10.9817C23.7208 11.5185 22.842 11.8617 21.92 11.9817C20.504 12.1261 19.3844 13.2457 19.24 14.6617C18.8751 17.1774 16.8964 19.152 14.38 19.5117C12.964 19.6561 11.8444 20.7757 11.7 22.1917C11.6105 22.8918 11.3936 23.5697 11.06 24.1917Z" fill="#696871"/>
</svg>
