<svg width="34" height="35" viewBox="0 0 34 35" fill="none" xmlns="http://www.w3.org/2000/svg">
<mask id="mask0" mask-type="alpha" maskUnits="userSpaceOnUse" x="0" y="0" width="30" height="31">
<path d="M30 15.5C30 7.21573 23.2843 0.5 15 0.5C6.71573 0.5 0 7.21573 0 15.5C0 23.7843 6.71573 30.5 15 30.5C23.2843 30.5 30 23.7843 30 15.5Z" fill="white"/>
</mask>
<g mask="url(#mask0)">
<path d="M30 0.5H0V30.5H30V0.5Z" fill="#1D2143"/>
<path d="M19.6356 10.0349C11.5324 8.31253 3.56715 13.4852 1.84475 21.5885C0.122352 29.6917 5.29505 37.657 13.3983 39.3794C21.5015 41.1018 29.4668 35.9291 31.1892 27.8258C32.9116 19.7226 27.7389 11.7573 19.6356 10.0349Z" fill="#0147FA"/>
<path d="M10.3594 22.0568C10.3305 22.8851 10.7414 23.6948 11.5019 24.3078C12.2624 24.9207 13.31 25.2868 14.4144 25.3253C15.5188 25.3639 16.5895 25.0718 17.3909 24.5134C18.1922 23.955 18.6587 23.1759 18.6876 22.3477" fill="white"/>
<path d="M10.8002 18.181C10.8163 17.721 10.5497 17.3384 10.2047 17.3263C9.85973 17.3143 9.56706 17.6774 9.551 18.1374C9.53493 18.5973 9.80156 18.98 10.1465 18.992C10.4915 19.004 10.7842 18.6409 10.8002 18.181Z" fill="white"/>
<path d="M20.2392 18.5106C20.2553 18.0506 19.9886 17.668 19.6437 17.656C19.2987 17.6439 19.006 18.007 18.99 18.467C18.9739 18.9269 19.2405 19.3096 19.5855 19.3216C19.9305 19.3337 20.2231 18.9706 20.2392 18.5106Z" fill="white"/>
</g>
</svg>
