<svg width="58" height="57" viewBox="0 0 58 57" fill="none" xmlns="http://www.w3.org/2000/svg">
<mask id="mask0" mask-type="alpha" maskUnits="userSpaceOnUse" x="0" y="0" width="58" height="57">
<path d="M57.5 28.5C57.5 12.7599 44.7401 0 29 0C13.2599 0 0.5 12.7599 0.5 28.5C0.5 44.2401 13.2599 57 29 57C44.7401 57 57.5 44.2401 57.5 28.5Z" fill="white"/>
</mask>
<g mask="url(#mask0)">
<path d="M57.5 0H0.5V57H57.5V0Z" fill="#e5e5e5"/>
<path d="M38.0924 10.1228C22.6963 6.85023 7.56229 16.6784 4.28974 32.0745C1.01719 47.4707 10.8453 62.6047 26.2415 65.8772C41.6376 69.1498 56.7716 59.3216 60.0442 43.9255C63.3167 28.5293 53.4886 13.3953 38.0924 10.1228Z" fill="#0147FA"/>
<path d="M17.8672 36.1394C17.8122 37.7131 18.5931 39.2516 20.038 40.4162C21.4829 41.5808 23.4735 42.2763 25.5718 42.3495C27.6702 42.4228 29.7044 41.8679 31.227 40.8069C32.7496 39.7459 33.6359 38.2657 33.6909 36.6919" fill="white"/>
<path d="M18.8788 29.8376C18.9094 28.9636 18.4028 28.2366 17.7473 28.2137C17.0919 28.1909 16.5358 28.8808 16.5053 29.7547C16.4748 30.6286 16.9814 31.3556 17.6368 31.3785C18.2922 31.4014 18.8483 30.7115 18.8788 29.8376Z" fill="white"/>
<path d="M34.7021 30.3901C34.7326 29.5162 34.226 28.7892 33.5706 28.7663C32.9151 28.7434 32.359 29.4333 32.3285 30.3072C32.298 31.1812 32.8046 31.9082 33.4601 31.9311C34.1155 31.9539 34.6716 31.2641 34.7021 30.3901Z" fill="white"/>
</g>
</svg>
