<svg width="16" height="16" viewBox="0 0 16 16" fill="none" xmlns="http://www.w3.org/2000/svg">
<path opacity="0.2" d="M7.99963 3.49951C2.99963 3.49951 0.999634 8 0.999634 8C0.999634 8 2.99963 12.4995 7.99963 12.4995C12.9996 12.4995 14.9996 8 14.9996 8C14.9996 8 12.9996 3.49951 7.99963 3.49951ZM7.99963 10.5C7.50518 10.5 7.02183 10.3534 6.61071 10.0787C6.19959 9.804 5.87915 9.41355 5.68993 8.95674C5.50072 8.49992 5.45121 7.99726 5.54767 7.5123C5.64413 7.02735 5.88224 6.58189 6.23187 6.23226C6.5815 5.88263 7.02696 5.64453 7.51191 5.54807C7.99686 5.4516 8.49953 5.50111 8.95634 5.69033C9.41316 5.87955 9.8036 6.19998 10.0783 6.6111C10.353 7.02223 10.4996 7.50558 10.4996 8.00003C10.4996 8.66307 10.2362 9.29895 9.7674 9.7678C9.29856 10.2366 8.66267 10.5 7.99963 10.5Z" fill="white"/>
<path d="M7.99963 3.49951C2.99963 3.49951 0.999634 8 0.999634 8C0.999634 8 2.99963 12.4995 7.99963 12.4995C12.9996 12.4995 14.9996 8 14.9996 8C14.9996 8 12.9996 3.49951 7.99963 3.49951Z" stroke="white" stroke-width="1.0625" stroke-linecap="round" stroke-linejoin="round"/>
<path d="M7.99963 10.5C9.38035 10.5 10.4996 9.38071 10.4996 8C10.4996 6.61929 9.38035 5.5 7.99963 5.5C6.61892 5.5 5.49963 6.61929 5.49963 8C5.49963 9.38071 6.61892 10.5 7.99963 10.5Z" stroke="white" stroke-width="1.0625" stroke-linecap="round" stroke-linejoin="round"/>
</svg>
